<svg width="43" height="40" viewBox="0 0 43 40" fill="none" xmlns="http://www.w3.org/2000/svg">
<path d="M6.42119 22.7176V28.4516C6.42119 29.3376 7.53939 31.0549 8.33297 31.449M6.42119 22.7176H21.1662M6.42119 22.7176V9.08838V5.99992M35.9113 22.7176V28.4516C35.9113 29.3376 34.7932 31.0549 33.9996 31.449M35.9113 22.7176H21.1662M35.9113 22.7176V9.08838V5.99992M8.33297 31.449V36.1569C8.33297 36.271 8.372 36.3817 8.44357 36.4706L9.34954 37.5954C9.44445 37.7133 9.58763 37.7818 9.73894 37.7818H11.7186C11.8749 37.7818 12.0223 37.7087 12.1168 37.5841L12.9648 36.4673C13.0308 36.3803 13.0665 36.2741 13.0665 36.1649V31.449M8.33297 31.449H13.0665M13.0665 31.449H29.266M33.9996 31.449H29.266M33.9996 31.449V36.1569C33.9996 36.271 33.9606 36.3817 33.889 36.4706L32.9831 37.5954C32.8882 37.7133 32.745 37.7818 32.5937 37.7818H30.6138C30.4574 37.7818 30.3101 37.7086 30.2156 37.5841L29.3677 36.4673C29.3017 36.3803 29.266 36.2741 29.266 36.165V31.449M21.1662 1.33325H32.8329C35.1663 1.33325 35.9113 1.33325 35.9113 3.66659V5.99992M21.1662 1.33325H9.49958C7.16625 1.33325 6.42119 1.33325 6.42119 3.66659V5.99992M21.1662 1.33325V22.7176M11.8335 27H16.5001M25.8335 27H30.5001M6.42119 5.99992L1.33398 9.08838V12.5884M35.9113 5.99992L40.9996 9.08838V12.5884" stroke="#1A1528" stroke-width="2.5" stroke-linecap="round" stroke-linejoin="round"/>
</svg>
