<svg width="36" height="36" viewBox="0 0 36 36" fill="none" xmlns="http://www.w3.org/2000/svg">
<path d="M7.50009 14.6542L8.00009 14.6542V14.6542H7.50009ZM7.5 25.3594L7 25.3594V25.3594H7.5ZM29.7498 25.3594L29.2498 25.3594V25.3594H29.7498ZM29.75 14.6542L30.25 14.6542V14.6542H29.75ZM21.5325 20.4378C21.5325 21.9732 20.2861 23.2189 18.7474 23.2189V24.2189C20.8373 24.2189 22.5325 22.5266 22.5325 20.4378H21.5325ZM18.7474 23.2189C17.2087 23.2189 15.9624 21.9732 15.9624 20.4378H14.9624C14.9624 22.5266 16.6576 24.2189 18.7474 24.2189V23.2189ZM15.9624 20.4378C15.9624 18.9024 17.2087 17.6567 18.7474 17.6567V16.6567C16.6576 16.6567 14.9624 18.349 14.9624 20.4378H15.9624ZM18.7474 17.6567C20.2861 17.6567 21.5325 18.9024 21.5325 20.4378H22.5325C22.5325 18.349 20.8373 16.6567 18.7474 16.6567V17.6567ZM7.00009 14.6542L7 25.3594L8 25.3595L8.00009 14.6542L7.00009 14.6542ZM9.14251 27.5H28.1073V26.5H9.14251V27.5ZM30.2498 25.3595L30.25 14.6542L29.25 14.6542L29.2498 25.3594L30.2498 25.3595ZM11.2475 12.5136H9.1426V13.5136H11.2475V12.5136ZM15.4626 9.5H21.8152V8.5H15.4626V9.5ZM28.1074 12.5136H26.2476V13.5136H28.1074V12.5136ZM26.2476 12.5136C26.1638 12.5136 25.9757 12.4472 25.6815 12.1985C25.4074 11.9669 25.1151 11.6408 24.833 11.2815C24.2706 10.5655 23.7997 9.78447 23.6523 9.53902L22.795 10.054C22.9444 10.3027 23.4426 11.1302 24.0465 11.8992C24.3475 12.2824 24.6877 12.668 25.036 12.9623C25.3642 13.2397 25.7885 13.5136 26.2476 13.5136V12.5136ZM21.8152 9.5C22.2168 9.5 22.5887 9.71046 22.795 10.054L23.6523 9.53902C23.2649 8.89424 22.5675 8.5 21.8152 8.5V9.5ZM14.4828 10.054C14.6891 9.71046 15.061 9.5 15.4626 9.5V8.5C14.7103 8.5 14.0129 8.89424 13.6255 9.53902L14.4828 10.054ZM11.2475 13.5136C11.4826 13.5136 11.6965 13.4304 11.8725 13.3312C12.0515 13.2302 12.2229 13.0947 12.382 12.9474C12.6999 12.6532 13.015 12.2685 13.296 11.8868C13.8597 11.1211 14.339 10.2932 14.4828 10.054L13.6255 9.53902C13.4724 9.7939 13.0202 10.5746 12.4907 11.2939C12.2251 11.6547 11.9532 11.9817 11.7028 12.2135C11.5777 12.3292 11.4697 12.4103 11.3812 12.4602C11.3379 12.4846 11.3044 12.4986 11.2804 12.5062C11.2566 12.5138 11.2464 12.5136 11.2475 12.5136V13.5136ZM30.25 14.6542C30.25 13.4714 29.2902 12.5136 28.1074 12.5136V13.5136C28.739 13.5136 29.25 14.0248 29.25 14.6542H30.25ZM28.1073 27.5C29.29 27.5 30.2498 26.5422 30.2498 25.3594H29.2498C29.2498 25.9888 28.7388 26.5 28.1073 26.5V27.5ZM7 25.3594C7 26.5422 7.9598 27.5 9.14251 27.5V26.5C8.51096 26.5 8 25.9888 8 25.3594H7ZM8.00009 14.6542C8.00009 14.0248 8.51105 13.5136 9.1426 13.5136V12.5136C7.95989 12.5136 7.00009 13.4714 7.00009 14.6542H8.00009ZM18.7476 13.5374C19.4768 13.5374 20.0689 12.9469 20.0689 12.2171H19.0689C19.0689 12.3935 18.9256 12.5374 18.7476 12.5374V13.5374ZM17.4264 12.2171C17.4264 12.9469 18.0185 13.5374 18.7476 13.5374V12.5374C18.5696 12.5374 18.4264 12.3935 18.4264 12.2171H17.4264ZM18.7476 10.8969C18.0185 10.8969 17.4264 11.4874 17.4264 12.2171H18.4264C18.4264 12.0408 18.5696 11.8969 18.7476 11.8969V10.8969ZM18.7476 11.8969C18.9256 11.8969 19.0689 12.0408 19.0689 12.2171H20.0689C20.0689 11.4874 19.4768 10.8969 18.7476 10.8969V11.8969Z" fill="white"/>
</svg>
