<svg width="56" height="56" viewBox="0 0 56 56" fill="none" xmlns="http://www.w3.org/2000/svg">
<path d="M32.2957 37.8H17.146C15.2909 37.8 14.2852 35.6289 15.4848 34.2139L20.6119 28.1667C21.4719 27.1522 23.0324 27.1389 23.9097 28.1384L27.2903 31.9902M32.2957 37.8H40.1249C41.8287 37.8 44.0596 35.9319 43.1667 34.4809L36.2854 25.2276C35.4892 23.9338 33.6464 23.8322 32.7127 25.0305L27.2903 31.9902M32.2957 37.8L27.2903 31.9902M9.17778 44.3334H48.3778C49.5805 44.3334 50.5556 43.3583 50.5556 42.1556V13.8445C50.5556 12.6417 49.5805 11.6667 48.3778 11.6667H9.17778C7.97502 11.6667 7 12.6417 7 13.8445V42.1556C7 43.3583 7.97502 44.3334 9.17778 44.3334ZM20.0667 20.0667C20.0667 21.8708 18.6041 23.3334 16.8 23.3334C14.9959 23.3334 13.5333 21.8708 13.5333 20.0667C13.5333 18.2626 14.9959 16.8 16.8 16.8C18.6041 16.8 20.0667 18.2626 20.0667 20.0667Z" stroke="#1F1F1F" stroke-width="2"/>
</svg>
