<svg width="24" height="24" viewBox="0 0 24 24" fill="none" xmlns="http://www.w3.org/2000/svg">
<path d="M8.88571 6H19.7429C20.0427 6 20.2857 6.23025 20.2857 6.51429V8.52892C20.2857 8.79551 20.0689 9.01523 19.7973 9.08513C18.831 9.33388 17.5137 10.1296 17.5137 12C17.5137 13.9918 18.7866 14.7439 19.7478 14.942C20.0407 15.0024 20.2857 15.2303 20.2857 15.5143V17.4857C20.2857 17.7697 20.0427 18 19.7429 18H8.88571M8.88571 6H4.54286C4.24305 6 4 6.23025 4 6.51429V8.52892C4 8.79551 4.21685 9.01523 4.4884 9.08513C5.45474 9.33388 6.77204 10.1296 6.77204 12C6.77204 13.9918 5.49913 14.7439 4.53796 14.942C4.24501 15.0024 4 15.2303 4 15.5143V17.4857C4 17.7697 4.24305 18 4.54286 18H8.88571M8.88571 6V7.71429M8.88571 9.42857V11.1429M8.88571 12.8571V14.5714M8.88571 18V16.2857M11.6 8.05714H14.8571M11.6 10.1143H14.8571M11.6 12.1714H14.8571M11.6 14.2286H14.8571M11.6 16.2857H14.8571" stroke="#1F1F1F" stroke-linecap="round"/>
</svg>
