<svg width="25" height="24" viewBox="0 0 25 24" fill="none" xmlns="http://www.w3.org/2000/svg">
<path d="M10.0337 6H19.667C19.9431 6 20.167 6.22386 20.167 6.5V8.54058C20.167 8.80035 19.967 9.01432 19.7151 9.07794C18.7634 9.3183 17.4436 10.1112 17.4436 12C17.4436 14.0145 18.7228 14.7608 19.6706 14.9486C19.9415 15.0023 20.167 15.2239 20.167 15.5V17.5C20.167 17.7761 19.9431 18 19.667 18H10.0337M10.0337 6H4.66699C4.39085 6 4.16699 6.22386 4.16699 6.5V8.54058C4.16699 8.80035 4.367 9.01432 4.61886 9.07794C5.57058 9.3183 6.8904 10.1112 6.8904 12C6.8904 14.0145 5.61118 14.7608 4.66338 14.9486C4.3925 15.0023 4.16699 15.2239 4.16699 15.5V17.5C4.16699 17.7761 4.39085 18 4.66699 18H10.0337M10.0337 6V7.71429M10.0337 9.42857V11.1429M10.0337 12.8571V14.5714M10.0337 18V16.2857" stroke="#404040" stroke-linecap="round" stroke-linejoin="round"/>
</svg>
